<?xml version="1.0" encoding="UTF-8"?>
<svg id="Calque_1" data-name="Calque 1" xmlns="http://www.w3.org/2000/svg" viewBox="0 0 128 128">
  <defs>
    <style>
      .cls-1 {
        fill: red;
        stroke: #000;
        stroke-miterlimit: 10;
        stroke-width: 2px;
      }
    </style>
  </defs>
  <path class="cls-1" d="m63.77,12.12c10.75,0,19.47,8.72,19.47,19.47v.73c0,3.18-2.58,5.76-5.76,5.76h-27.42c-3.18,0-5.76-2.58-5.76-5.76v-.73c0-10.75,8.72-19.47,19.47-19.47Zm-43.53,21.38c2.54-2.54,6.65-2.54,9.19,0l12.98,12.98c.14.14.26.28.39.43,2.88-1.48,6.17-2.31,9.63-2.31h22.7c3.47,0,6.73.83,9.63,2.31.12-.14.24-.28.39-.43l12.98-12.98c2.54-2.54,6.65-2.54,9.19,0s2.54,6.65,0,9.19l-12.98,12.98c-.14.14-.28.26-.43.39,1.26,2.43,2.05,5.13,2.25,8.01h13.04c3.59,0,6.49,2.9,6.49,6.49s-2.9,6.49-6.49,6.49h-12.98c0,4.99-1.12,9.69-3.12,13.91.45.26.85.59,1.22.97l12.98,12.98c2.54,2.54,2.54,6.65,0,9.19-2.54,2.54-6.65,2.54-9.19,0l-12.8-12.8c-4.97,4.42-11.32,7.34-18.31,8.03v-48.54c0-1.78-1.46-3.25-3.25-3.25s-3.25,1.46-3.25,3.25v48.52c-7-.69-13.35-3.61-18.31-8.03l-12.78,12.78c-2.54,2.54-6.65,2.54-9.19,0s-2.54-6.65,0-9.19l12.98-12.98c.39-.39.79-.69,1.22-.97-1.99-4.2-3.1-8.9-3.1-13.89h-12.98c-3.59,0-6.49-2.9-6.49-6.49s2.9-6.49,6.49-6.49h13.04c.22-2.86,1.01-5.58,2.25-8.01-.14-.12-.28-.24-.43-.39l-12.98-12.98c-2.54-2.54-2.54-6.65,0-9.19l.02.02Z"/>
</svg>